<svg width="24" height="24" xmlns="http://www.w3.org/2000/svg" xmlns:xlink="http://www.w3.org/1999/xlink" preserveAspectRatio="xMidYMid meet">
 <defs>
  <path id="b4fRPV9kVr" d="m19.95,0.09l0.45,0.11l0.44,0.15l0.42,0.19l0.39,0.22l0.38,0.26l0.34,0.29l0.32,0.32l0.29,0.34l0.26,0.38l0.22,0.39l0.19,0.42l0.15,0.44l0.11,0.45l0.07,0.47l0.02,0.48l0,14l-0.02,0.48l-0.07,0.47l-0.11,0.45l-0.15,0.44l-0.19,0.42l-0.22,0.39l-0.26,0.38l-0.29,0.34l-0.32,0.32l-0.34,0.29l-0.38,0.26l-0.39,0.22l-0.42,0.19l-0.44,0.15l-0.45,0.11l-0.47,0.07l-0.48,0.02l-14,0l-0.48,-0.02l-0.47,-0.07l-0.45,-0.11l-0.44,-0.15l-0.42,-0.19l-0.39,-0.22l-0.38,-0.26l-0.34,-0.29l-0.32,-0.32l-0.29,-0.34l-0.26,-0.38l-0.22,-0.39l-0.19,-0.42l-0.15,-0.44l-0.11,-0.45l-0.07,-0.47l-0.02,-0.48l0,-14l0.02,-0.48l0.07,-0.47l0.11,-0.45l0.15,-0.44l0.19,-0.42l0.22,-0.39l0.26,-0.38l0.29,-0.34l0.32,-0.32l0.34,-0.29l0.38,-0.26l0.39,-0.22l0.42,-0.19l0.44,-0.15l0.45,-0.11l0.47,-0.07l0.48,-0.02l14,0l0.48,0.02l0.47,0.07zm-9.95,18.91l3,0l0,-5.6l0.09,-0.78l0.26,-0.63l0.38,-0.49l0.47,-0.33l0.53,-0.18l0.54,-0.01l0.53,0.14l0.47,0.31l0.38,0.48l0.26,0.66l0.09,0.83l0,5.6l3,0l0,-6.76l-0.13,-1.3l-0.37,-1.04l-0.55,-0.8l-0.7,-0.58l-0.8,-0.35l-0.86,-0.16l-0.87,0.03l-0.84,0.21l-0.76,0.36l-0.64,0.51l-0.48,0.65l0,-1.77l-3,0l0,11zm-5,0l3,0l0,-11l-3,0l0,11zm0.26,-15.28l-0.37,0.56l-0.14,0.69l0.14,0.68l0.37,0.57l0.56,0.37l0.68,0.14l0.68,-0.14l0.56,-0.37l0.37,-0.57l0.14,-0.68l-0.14,-0.69l-0.37,-0.56l-0.56,-0.38l-0.68,-0.14l-0.68,0.14l-0.56,0.38z"/>
 </defs>
 <g>
  <title>background</title>
  <rect fill="none" id="canvas_background" height="26" width="26" y="-1" x="-1"/>
 </g>
 <g>
  <title>Layer 1</title>
  <g id="svg_1">
   <g id="svg_2">
    <g id="svg_3">
     <g id="svg_4">
      <filter primitiveUnits="userSpaceOnUse" filterUnits="userSpaceOnUse" height="43" width="43" y="-9" x="-9" id="shadow14413864">
       <feGaussianBlur stdDeviation="1"/>
      </filter>
      <path filter="url(#shadow14413864)" fill="white" id="e5MDjqOGr" d="m19.95,0.09l0.45,0.11l0.44,0.15l0.42,0.19l0.39,0.22l0.38,0.26l0.34,0.29l0.32,0.32l0.29,0.34l0.26,0.38l0.22,0.39l0.19,0.42l0.15,0.44l0.11,0.45l0.07,0.47l0.02,0.48l0,14l-0.02,0.48l-0.07,0.47l-0.11,0.45l-0.15,0.44l-0.19,0.42l-0.22,0.39l-0.26,0.38l-0.29,0.34l-0.32,0.32l-0.34,0.29l-0.38,0.26l-0.39,0.22l-0.42,0.19l-0.44,0.15l-0.45,0.11l-0.47,0.07l-0.48,0.02l-14,0l-0.48,-0.02l-0.47,-0.07l-0.45,-0.11l-0.44,-0.15l-0.42,-0.19l-0.39,-0.22l-0.38,-0.26l-0.34,-0.29l-0.32,-0.32l-0.29,-0.34l-0.26,-0.38l-0.22,-0.39l-0.19,-0.42l-0.15,-0.44l-0.11,-0.45l-0.07,-0.47l-0.02,-0.48l0,-14l0.02,-0.48l0.07,-0.47l0.11,-0.45l0.15,-0.44l0.19,-0.42l0.22,-0.39l0.26,-0.38l0.29,-0.34l0.32,-0.32l0.34,-0.29l0.38,-0.26l0.39,-0.22l0.42,-0.19l0.44,-0.15l0.45,-0.11l0.47,-0.07l0.48,-0.02l14,0l0.48,0.02l0.47,0.07zm-9.95,18.91l3,0l0,-5.6l0.09,-0.78l0.26,-0.63l0.38,-0.49l0.47,-0.33l0.53,-0.18l0.54,-0.01l0.53,0.14l0.47,0.31l0.38,0.48l0.26,0.66l0.09,0.83l0,5.6l3,0l0,-6.76l-0.13,-1.3l-0.37,-1.04l-0.55,-0.8l-0.7,-0.58l-0.8,-0.35l-0.86,-0.16l-0.87,0.03l-0.84,0.21l-0.76,0.36l-0.64,0.51l-0.48,0.65l0,-1.77l-3,0l0,11zm-5,0l3,0l0,-11l-3,0l0,11zm0.26,-15.28l-0.37,0.56l-0.14,0.69l0.14,0.68l0.37,0.57l0.56,0.37l0.68,0.14l0.68,-0.14l0.56,-0.37l0.37,-0.57l0.14,-0.68l-0.14,-0.69l-0.37,-0.56l-0.56,-0.38l-0.68,-0.14l-0.68,0.14l-0.56,0.38z"/>
     </g>
     <use id="svg_5" fill="#ffffff" xlink:href="#b4fRPV9kVr"/>
     <g id="svg_6">
      <use id="svg_7" stroke-opacity="0" stroke="#ff0000" fill-opacity="0" xlink:href="#b4fRPV9kVr"/>
     </g>
    </g>
   </g>
  </g>
 </g>
</svg>